<svg width="588" height="75" viewBox="0 0 588 75" fill="none" xmlns="http://www.w3.org/2000/svg">
<rect width="278" height="75" rx="16" fill="#6FC247"/>
<path d="M41.4 45V30.6H47.35C47.49 30.6 47.67 30.6067 47.89 30.62C48.11 30.6267 48.3133 30.6467 48.5 30.68C49.3333 30.8067 50.02 31.0833 50.56 31.51C51.1067 31.9367 51.51 32.4767 51.77 33.13C52.0367 33.7767 52.17 34.4967 52.17 35.29C52.17 36.4633 51.8733 37.4733 51.28 38.32C50.6867 39.16 49.7767 39.68 48.55 39.88L47.52 39.97H43.81V45H41.4ZM49.67 45L46.83 39.14L49.28 38.6L52.4 45H49.67ZM43.81 37.72H47.25C47.3833 37.72 47.5333 37.7133 47.7 37.7C47.8667 37.6867 48.02 37.66 48.16 37.62C48.56 37.52 48.8733 37.3433 49.1 37.09C49.3333 36.8367 49.4967 36.55 49.59 36.23C49.69 35.91 49.74 35.5967 49.74 35.29C49.74 34.9833 49.69 34.67 49.59 34.35C49.4967 34.0233 49.3333 33.7333 49.1 33.48C48.8733 33.2267 48.56 33.05 48.16 32.95C48.02 32.91 47.8667 32.8867 47.7 32.88C47.5333 32.8667 47.3833 32.86 47.25 32.86H43.81V37.72ZM59.5131 45.3C58.4198 45.3 57.4598 45.0633 56.6331 44.59C55.8065 44.1167 55.1598 43.46 54.6931 42.62C54.2331 41.78 54.0031 40.8133 54.0031 39.72C54.0031 38.54 54.2298 37.5167 54.6831 36.65C55.1365 35.7767 55.7665 35.1 56.5731 34.62C57.3798 34.14 58.3131 33.9 59.3731 33.9C60.4931 33.9 61.4431 34.1633 62.2231 34.69C63.0098 35.21 63.5931 35.9467 63.9731 36.9C64.3531 37.8533 64.4965 38.9767 64.4031 40.27H62.0131V39.39C62.0065 38.2167 61.7998 37.36 61.3931 36.82C60.9865 36.28 60.3465 36.01 59.4731 36.01C58.4865 36.01 57.7531 36.3167 57.2731 36.93C56.7931 37.5367 56.5531 38.4267 56.5531 39.6C56.5531 40.6933 56.7931 41.54 57.2731 42.14C57.7531 42.74 58.4531 43.04 59.3731 43.04C59.9665 43.04 60.4765 42.91 60.9031 42.65C61.3365 42.3833 61.6698 42 61.9031 41.5L64.2831 42.22C63.8698 43.1933 63.2298 43.95 62.3631 44.49C61.5031 45.03 60.5531 45.3 59.5131 45.3ZM55.7931 40.27V38.45H63.2231V40.27H55.7931ZM70.9644 45.3C69.971 45.3 69.1044 45.05 68.3644 44.55C67.6244 44.05 67.051 43.37 66.6444 42.51C66.2377 41.65 66.0344 40.68 66.0344 39.6C66.0344 38.5067 66.2377 37.5333 66.6444 36.68C67.0577 35.82 67.641 35.1433 68.3944 34.65C69.1477 34.15 70.0344 33.9 71.0544 33.9C72.081 33.9 72.941 34.15 73.6344 34.65C74.3344 35.1433 74.8644 35.82 75.2244 36.68C75.5844 37.54 75.7644 38.5133 75.7644 39.6C75.7644 40.6733 75.5844 41.6433 75.2244 42.51C74.8644 43.37 74.3277 44.05 73.6144 44.55C72.901 45.05 72.0177 45.3 70.9644 45.3ZM71.3344 43.14C71.981 43.14 72.501 42.9933 72.8944 42.7C73.2944 42.4 73.5844 41.9833 73.7644 41.45C73.951 40.9167 74.0444 40.3 74.0444 39.6C74.0444 38.8933 73.951 38.2767 73.7644 37.75C73.5844 37.2167 73.301 36.8033 72.9144 36.51C72.5277 36.21 72.0277 36.06 71.4144 36.06C70.7677 36.06 70.2344 36.22 69.8144 36.54C69.3944 36.8533 69.0844 37.28 68.8844 37.82C68.6844 38.3533 68.5844 38.9467 68.5844 39.6C68.5844 40.26 68.681 40.86 68.8744 41.4C69.0744 41.9333 69.3777 42.3567 69.7844 42.67C70.191 42.9833 70.7077 43.14 71.3344 43.14ZM73.7444 49.8V41.78H74.0444V34.2H76.1744V49.8H73.7444ZM83.0281 45.31C82.2281 45.31 81.5681 45.1767 81.0481 44.91C80.5281 44.6433 80.1148 44.3033 79.8081 43.89C79.5015 43.4767 79.2748 43.0367 79.1281 42.57C78.9815 42.1033 78.8848 41.6633 78.8381 41.25C78.7981 40.83 78.7781 40.49 78.7781 40.23V34.2H81.2181V39.4C81.2181 39.7333 81.2415 40.11 81.2881 40.53C81.3348 40.9433 81.4415 41.3433 81.6081 41.73C81.7815 42.11 82.0348 42.4233 82.3681 42.67C82.7081 42.9167 83.1648 43.04 83.7381 43.04C84.0448 43.04 84.3481 42.99 84.6481 42.89C84.9481 42.79 85.2181 42.62 85.4581 42.38C85.7048 42.1333 85.9015 41.7967 86.0481 41.37C86.1948 40.9433 86.2681 40.4033 86.2681 39.75L87.6981 40.36C87.6981 41.28 87.5181 42.1133 87.1581 42.86C86.8048 43.6067 86.2815 44.2033 85.5881 44.65C84.8948 45.09 84.0415 45.31 83.0281 45.31ZM86.5581 45V41.65H86.2681V34.2H88.6881V45H86.5581ZM96.4077 45.3C95.3143 45.3 94.3543 45.0633 93.5277 44.59C92.701 44.1167 92.0543 43.46 91.5877 42.62C91.1277 41.78 90.8977 40.8133 90.8977 39.72C90.8977 38.54 91.1243 37.5167 91.5777 36.65C92.031 35.7767 92.661 35.1 93.4677 34.62C94.2743 34.14 95.2077 33.9 96.2677 33.9C97.3877 33.9 98.3377 34.1633 99.1177 34.69C99.9043 35.21 100.488 35.9467 100.868 36.9C101.248 37.8533 101.391 38.9767 101.298 40.27H98.9077V39.39C98.901 38.2167 98.6943 37.36 98.2877 36.82C97.881 36.28 97.241 36.01 96.3677 36.01C95.381 36.01 94.6477 36.3167 94.1677 36.93C93.6877 37.5367 93.4477 38.4267 93.4477 39.6C93.4477 40.6933 93.6877 41.54 94.1677 42.14C94.6477 42.74 95.3477 43.04 96.2677 43.04C96.861 43.04 97.371 42.91 97.7977 42.65C98.231 42.3833 98.5643 42 98.7977 41.5L101.178 42.22C100.764 43.1933 100.124 43.95 99.2577 44.49C98.3977 45.03 97.4477 45.3 96.4077 45.3ZM92.6877 40.27V38.45H100.118V40.27H92.6877ZM107.699 45.3C106.366 45.3 105.282 45 104.449 44.4C103.616 43.8 103.109 42.9567 102.929 41.87L105.389 41.49C105.516 42.0233 105.796 42.4433 106.229 42.75C106.662 43.0567 107.209 43.21 107.869 43.21C108.449 43.21 108.896 43.0967 109.209 42.87C109.529 42.6367 109.689 42.32 109.689 41.92C109.689 41.6733 109.629 41.4767 109.509 41.33C109.396 41.1767 109.142 41.03 108.749 40.89C108.356 40.75 107.752 40.5733 106.939 40.36C106.032 40.12 105.312 39.8633 104.779 39.59C104.246 39.31 103.862 38.98 103.629 38.6C103.396 38.22 103.279 37.76 103.279 37.22C103.279 36.5467 103.456 35.96 103.809 35.46C104.162 34.96 104.656 34.5767 105.289 34.31C105.922 34.0367 106.669 33.9 107.529 33.9C108.369 33.9 109.112 34.03 109.759 34.29C110.412 34.55 110.939 34.92 111.339 35.4C111.739 35.88 111.986 36.4433 112.079 37.09L109.619 37.53C109.559 37.07 109.349 36.7067 108.989 36.44C108.636 36.1733 108.162 36.0233 107.569 35.99C107.002 35.9567 106.546 36.0433 106.199 36.25C105.852 36.45 105.679 36.7333 105.679 37.1C105.679 37.3067 105.749 37.4833 105.889 37.63C106.029 37.7767 106.309 37.9233 106.729 38.07C107.156 38.2167 107.789 38.3967 108.629 38.61C109.489 38.83 110.176 39.0833 110.689 39.37C111.209 39.65 111.582 39.9867 111.809 40.38C112.042 40.7733 112.159 41.25 112.159 41.81C112.159 42.8967 111.762 43.75 110.969 44.37C110.182 44.99 109.092 45.3 107.699 45.3ZM120.679 45C119.966 45.1333 119.266 45.19 118.579 45.17C117.899 45.1567 117.289 45.0333 116.749 44.8C116.209 44.56 115.799 44.1833 115.519 43.67C115.273 43.2033 115.143 42.7267 115.129 42.24C115.116 41.7533 115.109 41.2033 115.109 40.59V31.2H117.509V40.45C117.509 40.8833 117.513 41.2633 117.519 41.59C117.533 41.9167 117.603 42.1833 117.729 42.39C117.969 42.79 118.353 43.0133 118.879 43.06C119.406 43.1067 120.006 43.08 120.679 42.98V45ZM113.149 36.09V34.2H120.679V36.09H113.149ZM130.025 45.3C129.245 45.3 128.585 45.1533 128.045 44.86C127.505 44.56 127.095 44.1633 126.815 43.67C126.542 43.1767 126.405 42.6333 126.405 42.04C126.405 41.52 126.492 41.0533 126.665 40.64C126.839 40.22 127.105 39.86 127.465 39.56C127.825 39.2533 128.292 39.0033 128.865 38.81C129.299 38.67 129.805 38.5433 130.385 38.43C130.972 38.3167 131.605 38.2133 132.285 38.12C132.972 38.02 133.689 37.9133 134.435 37.8L133.575 38.29C133.582 37.5433 133.415 36.9933 133.075 36.64C132.735 36.2867 132.162 36.11 131.355 36.11C130.869 36.11 130.399 36.2233 129.945 36.45C129.492 36.6767 129.175 37.0667 128.995 37.62L126.795 36.93C127.062 36.0167 127.569 35.2833 128.315 34.73C129.069 34.1767 130.082 33.9 131.355 33.9C132.315 33.9 133.159 34.0567 133.885 34.37C134.619 34.6833 135.162 35.1967 135.515 35.91C135.709 36.29 135.825 36.68 135.865 37.08C135.905 37.4733 135.925 37.9033 135.925 38.37V45H133.815V42.66L134.165 43.04C133.679 43.82 133.109 44.3933 132.455 44.76C131.809 45.12 130.999 45.3 130.025 45.3ZM130.505 43.38C131.052 43.38 131.519 43.2833 131.905 43.09C132.292 42.8967 132.599 42.66 132.825 42.38C133.059 42.1 133.215 41.8367 133.295 41.59C133.422 41.2833 133.492 40.9333 133.505 40.54C133.525 40.14 133.535 39.8167 133.535 39.57L134.275 39.79C133.549 39.9033 132.925 40.0033 132.405 40.09C131.885 40.1767 131.439 40.26 131.065 40.34C130.692 40.4133 130.362 40.4967 130.075 40.59C129.795 40.69 129.559 40.8067 129.365 40.94C129.172 41.0733 129.022 41.2267 128.915 41.4C128.815 41.5733 128.765 41.7767 128.765 42.01C128.765 42.2767 128.832 42.5133 128.965 42.72C129.099 42.92 129.292 43.08 129.545 43.2C129.805 43.32 130.125 43.38 130.505 43.38ZM142.533 45V30.6H147.123C147.243 30.6 147.479 30.6033 147.833 30.61C148.193 30.6167 148.539 30.64 148.873 30.68C150.013 30.8267 150.976 31.2333 151.763 31.9C152.556 32.56 153.156 33.4033 153.563 34.43C153.969 35.4567 154.173 36.58 154.173 37.8C154.173 39.02 153.969 40.1433 153.563 41.17C153.156 42.1967 152.556 43.0433 151.763 43.71C150.976 44.37 150.013 44.7733 148.873 44.92C148.546 44.96 148.203 44.9833 147.843 44.99C147.483 44.9967 147.243 45 147.123 45H142.533ZM144.983 42.73H147.123C147.323 42.73 147.576 42.7233 147.883 42.71C148.196 42.6967 148.473 42.6667 148.713 42.62C149.393 42.4933 149.946 42.19 150.373 41.71C150.799 41.23 151.113 40.6467 151.313 39.96C151.519 39.2733 151.623 38.5533 151.623 37.8C151.623 37.02 151.519 36.2867 151.313 35.6C151.106 34.9133 150.786 34.3367 150.353 33.87C149.926 33.4033 149.379 33.1067 148.713 32.98C148.473 32.9267 148.196 32.8967 147.883 32.89C147.576 32.8767 147.323 32.87 147.123 32.87H144.983V42.73ZM161.447 45.3C160.353 45.3 159.393 45.0633 158.567 44.59C157.74 44.1167 157.093 43.46 156.627 42.62C156.167 41.78 155.937 40.8133 155.937 39.72C155.937 38.54 156.163 37.5167 156.617 36.65C157.07 35.7767 157.7 35.1 158.507 34.62C159.313 34.14 160.247 33.9 161.307 33.9C162.427 33.9 163.377 34.1633 164.157 34.69C164.943 35.21 165.527 35.9467 165.907 36.9C166.287 37.8533 166.43 38.9767 166.337 40.27H163.947V39.39C163.94 38.2167 163.733 37.36 163.327 36.82C162.92 36.28 162.28 36.01 161.407 36.01C160.42 36.01 159.687 36.3167 159.207 36.93C158.727 37.5367 158.487 38.4267 158.487 39.6C158.487 40.6933 158.727 41.54 159.207 42.14C159.687 42.74 160.387 43.04 161.307 43.04C161.9 43.04 162.41 42.91 162.837 42.65C163.27 42.3833 163.603 42 163.837 41.5L166.217 42.22C165.803 43.1933 165.163 43.95 164.297 44.49C163.437 45.03 162.487 45.3 161.447 45.3ZM157.727 40.27V38.45H165.157V40.27H157.727ZM181.245 45V38.44C181.245 37.7 181.062 37.1233 180.695 36.71C180.328 36.29 179.832 36.08 179.205 36.08C178.818 36.08 178.472 36.17 178.165 36.35C177.858 36.5233 177.615 36.7833 177.435 37.13C177.255 37.47 177.165 37.8767 177.165 38.35L176.095 37.72C176.088 36.9733 176.255 36.3167 176.595 35.75C176.942 35.1767 177.408 34.73 177.995 34.41C178.582 34.09 179.235 33.93 179.955 33.93C181.148 33.93 182.062 34.29 182.695 35.01C183.335 35.7233 183.655 36.6633 183.655 37.83V45H181.245ZM168.255 45V34.2H170.385V37.55H170.685V45H168.255ZM174.765 45V38.47C174.765 37.7167 174.582 37.13 174.215 36.71C173.848 36.29 173.348 36.08 172.715 36.08C172.102 36.08 171.608 36.29 171.235 36.71C170.868 37.13 170.685 37.6767 170.685 38.35L169.605 37.63C169.605 36.93 169.778 36.3 170.125 35.74C170.472 35.18 170.938 34.74 171.525 34.42C172.118 34.0933 172.782 33.93 173.515 33.93C174.322 33.93 174.995 34.1033 175.535 34.45C176.082 34.79 176.488 35.2567 176.755 35.85C177.028 36.4367 177.165 37.1 177.165 37.84V45H174.765ZM190.858 45.3C189.778 45.3 188.834 45.0567 188.028 44.57C187.221 44.0833 186.594 43.4133 186.148 42.56C185.708 41.7 185.488 40.7133 185.488 39.6C185.488 38.4667 185.714 37.4733 186.168 36.62C186.621 35.7667 187.251 35.1 188.058 34.62C188.864 34.14 189.798 33.9 190.858 33.9C191.944 33.9 192.891 34.1433 193.698 34.63C194.504 35.1167 195.131 35.79 195.578 36.65C196.024 37.5033 196.248 38.4867 196.248 39.6C196.248 40.72 196.021 41.71 195.568 42.57C195.121 43.4233 194.494 44.0933 193.688 44.58C192.881 45.06 191.938 45.3 190.858 45.3ZM190.858 43.04C191.818 43.04 192.531 42.72 192.998 42.08C193.464 41.44 193.698 40.6133 193.698 39.6C193.698 38.5533 193.461 37.72 192.988 37.1C192.514 36.4733 191.804 36.16 190.858 36.16C190.211 36.16 189.678 36.3067 189.258 36.6C188.844 36.8867 188.538 37.29 188.338 37.81C188.138 38.3233 188.038 38.92 188.038 39.6C188.038 40.6467 188.274 41.4833 188.748 42.11C189.228 42.73 189.931 43.04 190.858 43.04Z" fill="white"/>
<g clip-path="url(#clip0_1_6)">
<path d="M223 38L226 41L234 33" stroke="white" stroke-width="1.5" stroke-linecap="round" stroke-linejoin="round"/>
<path d="M234 39V45C234 45.5304 233.789 46.0391 233.414 46.4142C233.039 46.7893 232.53 47 232 47H220C219.47 47 218.961 46.7893 218.586 46.4142C218.211 46.0391 218 45.5304 218 45V33C218 32.4696 218.211 31.9609 218.586 31.5858C218.961 31.2107 219.47 31 220 31H229" stroke="white" stroke-width="1.5" stroke-linecap="round" stroke-linejoin="round"/>
</g>
<rect x="310.5" y="0.5" width="277" height="74" rx="15.5" stroke="#6FC247"/>
<path d="M388.23 45.3C387.177 45.3 386.227 45.1167 385.38 44.75C384.54 44.3833 383.847 43.86 383.3 43.18C382.76 42.4933 382.417 41.68 382.27 40.74L384.77 40.36C384.983 41.2133 385.42 41.8733 386.08 42.34C386.747 42.8067 387.513 43.04 388.38 43.04C388.893 43.04 389.377 42.96 389.83 42.8C390.283 42.64 390.65 42.4067 390.93 42.1C391.217 41.7933 391.36 41.4167 391.36 40.97C391.36 40.77 391.327 40.5867 391.26 40.42C391.193 40.2467 391.093 40.0933 390.96 39.96C390.833 39.8267 390.667 39.7067 390.46 39.6C390.26 39.4867 390.027 39.39 389.76 39.31L386.04 38.21C385.72 38.1167 385.373 37.9933 385 37.84C384.633 37.68 384.283 37.4633 383.95 37.19C383.623 36.91 383.353 36.5567 383.14 36.13C382.933 35.6967 382.83 35.1633 382.83 34.53C382.83 33.6033 383.063 32.8267 383.53 32.2C384.003 31.5667 384.637 31.0933 385.43 30.78C386.23 30.4667 387.117 30.3133 388.09 30.32C389.077 30.3267 389.957 30.4967 390.73 30.83C391.503 31.1567 392.15 31.6333 392.67 32.26C393.19 32.8867 393.557 33.6433 393.77 34.53L391.18 34.98C391.073 34.4733 390.867 34.0433 390.56 33.69C390.26 33.33 389.89 33.0567 389.45 32.87C389.017 32.6833 388.553 32.5833 388.06 32.57C387.58 32.5633 387.133 32.6367 386.72 32.79C386.313 32.9367 385.983 33.15 385.73 33.43C385.483 33.71 385.36 34.0367 385.36 34.41C385.36 34.7633 385.467 35.0533 385.68 35.28C385.893 35.5 386.157 35.6767 386.47 35.81C386.79 35.9367 387.113 36.0433 387.44 36.13L390.02 36.85C390.373 36.9433 390.77 37.07 391.21 37.23C391.65 37.39 392.073 37.6133 392.48 37.9C392.887 38.1867 393.22 38.5633 393.48 39.03C393.747 39.4967 393.88 40.09 393.88 40.81C393.88 41.5567 393.723 42.2133 393.41 42.78C393.103 43.34 392.687 43.8067 392.16 44.18C391.633 44.5533 391.03 44.8333 390.35 45.02C389.677 45.2067 388.97 45.3 388.23 45.3ZM396.245 32.56V30.35H398.655V32.56H396.245ZM396.245 45V34.2H398.655V45H396.245ZM406.19 50.1C405.59 50.1 405.013 50.0067 404.46 49.82C403.913 49.6333 403.42 49.3633 402.98 49.01C402.54 48.6633 402.18 48.2433 401.9 47.75L404.12 46.65C404.327 47.0433 404.617 47.3333 404.99 47.52C405.37 47.7133 405.773 47.81 406.2 47.81C406.7 47.81 407.147 47.72 407.54 47.54C407.933 47.3667 408.237 47.1067 408.45 46.76C408.67 46.42 408.773 45.9933 408.76 45.48V42.41H409.06V34.2H411.17V45.52C411.17 45.7933 411.157 46.0533 411.13 46.3C411.11 46.5533 411.073 46.8 411.02 47.04C410.86 47.74 410.553 48.3133 410.1 48.76C409.647 49.2133 409.083 49.55 408.41 49.77C407.743 49.99 407.003 50.1 406.19 50.1ZM405.98 45.3C404.987 45.3 404.12 45.05 403.38 44.55C402.64 44.05 402.067 43.37 401.66 42.51C401.253 41.65 401.05 40.68 401.05 39.6C401.05 38.5067 401.253 37.5333 401.66 36.68C402.073 35.82 402.657 35.1433 403.41 34.65C404.163 34.15 405.05 33.9 406.07 33.9C407.097 33.9 407.957 34.15 408.65 34.65C409.35 35.1433 409.88 35.82 410.24 36.68C410.6 37.54 410.78 38.5133 410.78 39.6C410.78 40.6733 410.6 41.6433 410.24 42.51C409.88 43.37 409.343 44.05 408.63 44.55C407.917 45.05 407.033 45.3 405.98 45.3ZM406.35 43.14C406.997 43.14 407.517 42.9933 407.91 42.7C408.31 42.4 408.6 41.9833 408.78 41.45C408.967 40.9167 409.06 40.3 409.06 39.6C409.06 38.8933 408.967 38.2767 408.78 37.75C408.6 37.2167 408.317 36.8033 407.93 36.51C407.543 36.21 407.043 36.06 406.43 36.06C405.783 36.06 405.25 36.22 404.83 36.54C404.41 36.8533 404.1 37.28 403.9 37.82C403.7 38.3533 403.6 38.9467 403.6 39.6C403.6 40.26 403.697 40.86 403.89 41.4C404.09 41.9333 404.393 42.3567 404.8 42.67C405.207 42.9833 405.723 43.14 406.35 43.14ZM421.444 45V39.8C421.444 39.46 421.421 39.0833 421.374 38.67C421.328 38.2567 421.218 37.86 421.044 37.48C420.878 37.0933 420.624 36.7767 420.284 36.53C419.951 36.2833 419.498 36.16 418.924 36.16C418.618 36.16 418.314 36.21 418.014 36.31C417.714 36.41 417.441 36.5833 417.194 36.83C416.954 37.07 416.761 37.4033 416.614 37.83C416.468 38.25 416.394 38.79 416.394 39.45L414.964 38.84C414.964 37.92 415.141 37.0867 415.494 36.34C415.854 35.5933 416.381 35 417.074 34.56C417.768 34.1133 418.621 33.89 419.634 33.89C420.434 33.89 421.094 34.0233 421.614 34.29C422.134 34.5567 422.548 34.8967 422.854 35.31C423.161 35.7233 423.388 36.1633 423.534 36.63C423.681 37.0967 423.774 37.54 423.814 37.96C423.861 38.3733 423.884 38.71 423.884 38.97V45H421.444ZM413.954 45V34.2H416.104V37.55H416.394V45H413.954ZM434.548 45.31C433.748 45.31 433.088 45.1767 432.568 44.91C432.048 44.6433 431.634 44.3033 431.328 43.89C431.021 43.4767 430.794 43.0367 430.648 42.57C430.501 42.1033 430.404 41.6633 430.358 41.25C430.318 40.83 430.298 40.49 430.298 40.23V34.2H432.738V39.4C432.738 39.7333 432.761 40.11 432.808 40.53C432.854 40.9433 432.961 41.3433 433.128 41.73C433.301 42.11 433.554 42.4233 433.888 42.67C434.228 42.9167 434.684 43.04 435.258 43.04C435.564 43.04 435.868 42.99 436.168 42.89C436.468 42.79 436.738 42.62 436.978 42.38C437.224 42.1333 437.421 41.7967 437.568 41.37C437.714 40.9433 437.788 40.4033 437.788 39.75L439.218 40.36C439.218 41.28 439.038 42.1133 438.678 42.86C438.324 43.6067 437.801 44.2033 437.108 44.65C436.414 45.09 435.561 45.31 434.548 45.31ZM438.078 45V41.65H437.788V34.2H440.208V45H438.078ZM448.207 45.3C447.154 45.3 446.271 45.05 445.557 44.55C444.844 44.05 444.307 43.37 443.947 42.51C443.587 41.6433 443.407 40.6733 443.407 39.6C443.407 38.5133 443.587 37.54 443.947 36.68C444.307 35.82 444.834 35.1433 445.527 34.65C446.227 34.15 447.091 33.9 448.117 33.9C449.137 33.9 450.021 34.15 450.767 34.65C451.521 35.1433 452.104 35.82 452.517 36.68C452.931 37.5333 453.137 38.5067 453.137 39.6C453.137 40.68 452.934 41.65 452.527 42.51C452.121 43.37 451.547 44.05 450.807 44.55C450.067 45.05 449.201 45.3 448.207 45.3ZM442.997 49.8V34.2H445.127V41.78H445.427V49.8H442.997ZM447.837 43.14C448.464 43.14 448.981 42.9833 449.387 42.67C449.794 42.3567 450.094 41.9333 450.287 41.4C450.487 40.86 450.587 40.26 450.587 39.6C450.587 38.9467 450.487 38.3533 450.287 37.82C450.087 37.28 449.777 36.8533 449.357 36.54C448.937 36.22 448.404 36.06 447.757 36.06C447.144 36.06 446.644 36.21 446.257 36.51C445.871 36.8033 445.584 37.2167 445.397 37.75C445.217 38.2767 445.127 38.8933 445.127 39.6C445.127 40.3 445.217 40.9167 445.397 41.45C445.584 41.9833 445.874 42.4 446.267 42.7C446.667 42.9933 447.191 43.14 447.837 43.14ZM458.981 30.6H461.401L457.561 45H455.141L458.981 30.6ZM464.194 45V30.6H466.604V42.74H472.964V45H464.194ZM479.428 45.3C478.348 45.3 477.404 45.0567 476.598 44.57C475.791 44.0833 475.164 43.4133 474.718 42.56C474.278 41.7 474.058 40.7133 474.058 39.6C474.058 38.4667 474.284 37.4733 474.738 36.62C475.191 35.7667 475.821 35.1 476.628 34.62C477.434 34.14 478.368 33.9 479.428 33.9C480.514 33.9 481.461 34.1433 482.268 34.63C483.074 35.1167 483.701 35.79 484.148 36.65C484.594 37.5033 484.818 38.4867 484.818 39.6C484.818 40.72 484.591 41.71 484.138 42.57C483.691 43.4233 483.064 44.0933 482.258 44.58C481.451 45.06 480.508 45.3 479.428 45.3ZM479.428 43.04C480.388 43.04 481.101 42.72 481.568 42.08C482.034 41.44 482.268 40.6133 482.268 39.6C482.268 38.5533 482.031 37.72 481.558 37.1C481.084 36.4733 480.374 36.16 479.428 36.16C478.781 36.16 478.248 36.3067 477.828 36.6C477.414 36.8867 477.108 37.29 476.908 37.81C476.708 38.3233 476.608 38.92 476.608 39.6C476.608 40.6467 476.844 41.4833 477.318 42.11C477.798 42.73 478.501 43.04 479.428 43.04ZM491.561 50.1C490.961 50.1 490.384 50.0067 489.831 49.82C489.284 49.6333 488.791 49.3633 488.351 49.01C487.911 48.6633 487.551 48.2433 487.271 47.75L489.491 46.65C489.698 47.0433 489.988 47.3333 490.361 47.52C490.741 47.7133 491.144 47.81 491.571 47.81C492.071 47.81 492.518 47.72 492.911 47.54C493.304 47.3667 493.608 47.1067 493.821 46.76C494.041 46.42 494.144 45.9933 494.131 45.48V42.41H494.431V34.2H496.541V45.52C496.541 45.7933 496.528 46.0533 496.501 46.3C496.481 46.5533 496.444 46.8 496.391 47.04C496.231 47.74 495.924 48.3133 495.471 48.76C495.018 49.2133 494.454 49.55 493.781 49.77C493.114 49.99 492.374 50.1 491.561 50.1ZM491.351 45.3C490.358 45.3 489.491 45.05 488.751 44.55C488.011 44.05 487.438 43.37 487.031 42.51C486.624 41.65 486.421 40.68 486.421 39.6C486.421 38.5067 486.624 37.5333 487.031 36.68C487.444 35.82 488.028 35.1433 488.781 34.65C489.534 34.15 490.421 33.9 491.441 33.9C492.468 33.9 493.328 34.15 494.021 34.65C494.721 35.1433 495.251 35.82 495.611 36.68C495.971 37.54 496.151 38.5133 496.151 39.6C496.151 40.6733 495.971 41.6433 495.611 42.51C495.251 43.37 494.714 44.05 494.001 44.55C493.288 45.05 492.404 45.3 491.351 45.3ZM491.721 43.14C492.368 43.14 492.888 42.9933 493.281 42.7C493.681 42.4 493.971 41.9833 494.151 41.45C494.338 40.9167 494.431 40.3 494.431 39.6C494.431 38.8933 494.338 38.2767 494.151 37.75C493.971 37.2167 493.688 36.8033 493.301 36.51C492.914 36.21 492.414 36.06 491.801 36.06C491.154 36.06 490.621 36.22 490.201 36.54C489.781 36.8533 489.471 37.28 489.271 37.82C489.071 38.3533 488.971 38.9467 488.971 39.6C488.971 40.26 489.068 40.86 489.261 41.4C489.461 41.9333 489.764 42.3567 490.171 42.67C490.578 42.9833 491.094 43.14 491.721 43.14ZM499.545 32.56V30.35H501.955V32.56H499.545ZM499.545 45V34.2H501.955V45H499.545ZM512.421 45V39.8C512.421 39.46 512.397 39.0833 512.351 38.67C512.304 38.2567 512.194 37.86 512.021 37.48C511.854 37.0933 511.601 36.7767 511.261 36.53C510.927 36.2833 510.474 36.16 509.901 36.16C509.594 36.16 509.291 36.21 508.991 36.31C508.691 36.41 508.417 36.5833 508.171 36.83C507.931 37.07 507.737 37.4033 507.591 37.83C507.444 38.25 507.371 38.79 507.371 39.45L505.941 38.84C505.941 37.92 506.117 37.0867 506.471 36.34C506.831 35.5933 507.357 35 508.051 34.56C508.744 34.1133 509.597 33.89 510.611 33.89C511.411 33.89 512.071 34.0233 512.591 34.29C513.111 34.5567 513.524 34.8967 513.831 35.31C514.137 35.7233 514.364 36.1633 514.511 36.63C514.657 37.0967 514.751 37.54 514.791 37.96C514.837 38.3733 514.861 38.71 514.861 38.97V45H512.421ZM504.931 45V34.2H507.081V37.55H507.371V45H504.931Z" fill="#6FC247"/>
<defs>
<clipPath id="clip0_1_6">
<rect width="24" height="24" fill="white" transform="translate(214 27)"/>
</clipPath>
</defs>
</svg>
