<svg width="279" height="75" viewBox="0 0 279 75" fill="none" xmlns="http://www.w3.org/2000/svg">
<rect x="0.846191" width="278" height="75" rx="16" fill="#6FC247"/>
<path d="M42.2462 45V30.6H48.1962C48.3362 30.6 48.5162 30.6067 48.7362 30.62C48.9562 30.6267 49.1595 30.6467 49.3462 30.68C50.1795 30.8067 50.8662 31.0833 51.4062 31.51C51.9529 31.9367 52.3562 32.4767 52.6162 33.13C52.8829 33.7767 53.0162 34.4967 53.0162 35.29C53.0162 36.4633 52.7195 37.4733 52.1262 38.32C51.5329 39.16 50.6229 39.68 49.3962 39.88L48.3662 39.97H44.6562V45H42.2462ZM50.5162 45L47.6762 39.14L50.1262 38.6L53.2462 45H50.5162ZM44.6562 37.72H48.0962C48.2295 37.72 48.3795 37.7133 48.5462 37.7C48.7129 37.6867 48.8662 37.66 49.0062 37.62C49.4062 37.52 49.7195 37.3433 49.9462 37.09C50.1795 36.8367 50.3429 36.55 50.4362 36.23C50.5362 35.91 50.5862 35.5967 50.5862 35.29C50.5862 34.9833 50.5362 34.67 50.4362 34.35C50.3429 34.0233 50.1795 33.7333 49.9462 33.48C49.7195 33.2267 49.4062 33.05 49.0062 32.95C48.8662 32.91 48.7129 32.8867 48.5462 32.88C48.3795 32.8667 48.2295 32.86 48.0962 32.86H44.6562V37.72ZM60.3593 45.3C59.266 45.3 58.306 45.0633 57.4793 44.59C56.6526 44.1167 56.006 43.46 55.5393 42.62C55.0793 41.78 54.8493 40.8133 54.8493 39.72C54.8493 38.54 55.076 37.5167 55.5293 36.65C55.9826 35.7767 56.6126 35.1 57.4193 34.62C58.226 34.14 59.1593 33.9 60.2193 33.9C61.3393 33.9 62.2893 34.1633 63.0693 34.69C63.856 35.21 64.4393 35.9467 64.8193 36.9C65.1993 37.8533 65.3427 38.9767 65.2493 40.27H62.8593V39.39C62.8527 38.2167 62.646 37.36 62.2393 36.82C61.8327 36.28 61.1926 36.01 60.3193 36.01C59.3327 36.01 58.5993 36.3167 58.1193 36.93C57.6393 37.5367 57.3993 38.4267 57.3993 39.6C57.3993 40.6933 57.6393 41.54 58.1193 42.14C58.5993 42.74 59.2993 43.04 60.2193 43.04C60.8127 43.04 61.3227 42.91 61.7493 42.65C62.1827 42.3833 62.516 42 62.7493 41.5L65.1293 42.22C64.716 43.1933 64.076 43.95 63.2093 44.49C62.3493 45.03 61.3993 45.3 60.3593 45.3ZM56.6393 40.27V38.45H64.0693V40.27H56.6393ZM71.8106 45.3C70.8172 45.3 69.9506 45.05 69.2106 44.55C68.4706 44.05 67.8972 43.37 67.4906 42.51C67.0839 41.65 66.8806 40.68 66.8806 39.6C66.8806 38.5067 67.0839 37.5333 67.4906 36.68C67.9039 35.82 68.4872 35.1433 69.2406 34.65C69.9939 34.15 70.8806 33.9 71.9006 33.9C72.9272 33.9 73.7872 34.15 74.4806 34.65C75.1806 35.1433 75.7106 35.82 76.0706 36.68C76.4306 37.54 76.6106 38.5133 76.6106 39.6C76.6106 40.6733 76.4306 41.6433 76.0706 42.51C75.7106 43.37 75.1739 44.05 74.4606 44.55C73.7472 45.05 72.8639 45.3 71.8106 45.3ZM72.1806 43.14C72.8272 43.14 73.3472 42.9933 73.7406 42.7C74.1406 42.4 74.4306 41.9833 74.6106 41.45C74.7972 40.9167 74.8906 40.3 74.8906 39.6C74.8906 38.8933 74.7972 38.2767 74.6106 37.75C74.4306 37.2167 74.1472 36.8033 73.7606 36.51C73.3739 36.21 72.8739 36.06 72.2606 36.06C71.6139 36.06 71.0806 36.22 70.6606 36.54C70.2406 36.8533 69.9306 37.28 69.7306 37.82C69.5306 38.3533 69.4306 38.9467 69.4306 39.6C69.4306 40.26 69.5272 40.86 69.7206 41.4C69.9206 41.9333 70.2239 42.3567 70.6306 42.67C71.0372 42.9833 71.5539 43.14 72.1806 43.14ZM74.5906 49.8V41.78H74.8906V34.2H77.0206V49.8H74.5906ZM83.8743 45.31C83.0743 45.31 82.4143 45.1767 81.8943 44.91C81.3743 44.6433 80.961 44.3033 80.6543 43.89C80.3476 43.4767 80.121 43.0367 79.9743 42.57C79.8276 42.1033 79.731 41.6633 79.6843 41.25C79.6443 40.83 79.6243 40.49 79.6243 40.23V34.2H82.0643V39.4C82.0643 39.7333 82.0876 40.11 82.1343 40.53C82.181 40.9433 82.2876 41.3433 82.4543 41.73C82.6276 42.11 82.881 42.4233 83.2143 42.67C83.5543 42.9167 84.011 43.04 84.5843 43.04C84.891 43.04 85.1943 42.99 85.4943 42.89C85.7943 42.79 86.0643 42.62 86.3043 42.38C86.551 42.1333 86.7477 41.7967 86.8943 41.37C87.041 40.9433 87.1143 40.4033 87.1143 39.75L88.5443 40.36C88.5443 41.28 88.3643 42.1133 88.0043 42.86C87.651 43.6067 87.1277 44.2033 86.4343 44.65C85.741 45.09 84.8876 45.31 83.8743 45.31ZM87.4043 45V41.65H87.1143V34.2H89.5343V45H87.4043ZM97.2538 45.3C96.1605 45.3 95.2005 45.0633 94.3738 44.59C93.5472 44.1167 92.9005 43.46 92.4338 42.62C91.9738 41.78 91.7438 40.8133 91.7438 39.72C91.7438 38.54 91.9705 37.5167 92.4238 36.65C92.8772 35.7767 93.5072 35.1 94.3138 34.62C95.1205 34.14 96.0538 33.9 97.1138 33.9C98.2338 33.9 99.1838 34.1633 99.9638 34.69C100.751 35.21 101.334 35.9467 101.714 36.9C102.094 37.8533 102.237 38.9767 102.144 40.27H99.7538V39.39C99.7472 38.2167 99.5405 37.36 99.1338 36.82C98.7272 36.28 98.0872 36.01 97.2138 36.01C96.2272 36.01 95.4938 36.3167 95.0138 36.93C94.5338 37.5367 94.2938 38.4267 94.2938 39.6C94.2938 40.6933 94.5338 41.54 95.0138 42.14C95.4938 42.74 96.1938 43.04 97.1138 43.04C97.7072 43.04 98.2172 42.91 98.6438 42.65C99.0772 42.3833 99.4105 42 99.6438 41.5L102.024 42.22C101.611 43.1933 100.971 43.95 100.104 44.49C99.2438 45.03 98.2938 45.3 97.2538 45.3ZM93.5338 40.27V38.45H100.964V40.27H93.5338ZM108.545 45.3C107.212 45.3 106.128 45 105.295 44.4C104.462 43.8 103.955 42.9567 103.775 41.87L106.235 41.49C106.362 42.0233 106.642 42.4433 107.075 42.75C107.508 43.0567 108.055 43.21 108.715 43.21C109.295 43.21 109.742 43.0967 110.055 42.87C110.375 42.6367 110.535 42.32 110.535 41.92C110.535 41.6733 110.475 41.4767 110.355 41.33C110.242 41.1767 109.988 41.03 109.595 40.89C109.202 40.75 108.598 40.5733 107.785 40.36C106.878 40.12 106.158 39.8633 105.625 39.59C105.092 39.31 104.708 38.98 104.475 38.6C104.242 38.22 104.125 37.76 104.125 37.22C104.125 36.5467 104.302 35.96 104.655 35.46C105.008 34.96 105.502 34.5767 106.135 34.31C106.768 34.0367 107.515 33.9 108.375 33.9C109.215 33.9 109.958 34.03 110.605 34.29C111.258 34.55 111.785 34.92 112.185 35.4C112.585 35.88 112.832 36.4433 112.925 37.09L110.465 37.53C110.405 37.07 110.195 36.7067 109.835 36.44C109.482 36.1733 109.008 36.0233 108.415 35.99C107.848 35.9567 107.392 36.0433 107.045 36.25C106.698 36.45 106.525 36.7333 106.525 37.1C106.525 37.3067 106.595 37.4833 106.735 37.63C106.875 37.7767 107.155 37.9233 107.575 38.07C108.002 38.2167 108.635 38.3967 109.475 38.61C110.335 38.83 111.022 39.0833 111.535 39.37C112.055 39.65 112.428 39.9867 112.655 40.38C112.888 40.7733 113.005 41.25 113.005 41.81C113.005 42.8967 112.608 43.75 111.815 44.37C111.028 44.99 109.938 45.3 108.545 45.3ZM121.525 45C120.812 45.1333 120.112 45.19 119.425 45.17C118.745 45.1567 118.135 45.0333 117.595 44.8C117.055 44.56 116.645 44.1833 116.365 43.67C116.119 43.2033 115.989 42.7267 115.975 42.24C115.962 41.7533 115.955 41.2033 115.955 40.59V31.2H118.355V40.45C118.355 40.8833 118.359 41.2633 118.365 41.59C118.379 41.9167 118.449 42.1833 118.575 42.39C118.815 42.79 119.199 43.0133 119.725 43.06C120.252 43.1067 120.852 43.08 121.525 42.98V45ZM113.995 36.09V34.2H121.525V36.09H113.995ZM130.872 45.3C130.092 45.3 129.432 45.1533 128.892 44.86C128.352 44.56 127.942 44.1633 127.662 43.67C127.388 43.1767 127.252 42.6333 127.252 42.04C127.252 41.52 127.338 41.0533 127.512 40.64C127.685 40.22 127.952 39.86 128.312 39.56C128.672 39.2533 129.138 39.0033 129.712 38.81C130.145 38.67 130.652 38.5433 131.232 38.43C131.818 38.3167 132.452 38.2133 133.132 38.12C133.818 38.02 134.535 37.9133 135.282 37.8L134.422 38.29C134.428 37.5433 134.262 36.9933 133.922 36.64C133.582 36.2867 133.008 36.11 132.202 36.11C131.715 36.11 131.245 36.2233 130.792 36.45C130.338 36.6767 130.022 37.0667 129.842 37.62L127.642 36.93C127.908 36.0167 128.415 35.2833 129.162 34.73C129.915 34.1767 130.928 33.9 132.202 33.9C133.162 33.9 134.005 34.0567 134.732 34.37C135.465 34.6833 136.008 35.1967 136.362 35.91C136.555 36.29 136.672 36.68 136.712 37.08C136.752 37.4733 136.772 37.9033 136.772 38.37V45H134.662V42.66L135.012 43.04C134.525 43.82 133.955 44.3933 133.302 44.76C132.655 45.12 131.845 45.3 130.872 45.3ZM131.352 43.38C131.898 43.38 132.365 43.2833 132.752 43.09C133.138 42.8967 133.445 42.66 133.672 42.38C133.905 42.1 134.062 41.8367 134.142 41.59C134.268 41.2833 134.338 40.9333 134.352 40.54C134.372 40.14 134.382 39.8167 134.382 39.57L135.122 39.79C134.395 39.9033 133.772 40.0033 133.252 40.09C132.732 40.1767 132.285 40.26 131.912 40.34C131.538 40.4133 131.208 40.4967 130.922 40.59C130.642 40.69 130.405 40.8067 130.212 40.94C130.018 41.0733 129.868 41.2267 129.762 41.4C129.662 41.5733 129.612 41.7767 129.612 42.01C129.612 42.2767 129.678 42.5133 129.812 42.72C129.945 42.92 130.138 43.08 130.392 43.2C130.652 43.32 130.972 43.38 131.352 43.38ZM143.379 45V30.6H147.969C148.089 30.6 148.326 30.6033 148.679 30.61C149.039 30.6167 149.386 30.64 149.719 30.68C150.859 30.8267 151.822 31.2333 152.609 31.9C153.402 32.56 154.002 33.4033 154.409 34.43C154.816 35.4567 155.019 36.58 155.019 37.8C155.019 39.02 154.816 40.1433 154.409 41.17C154.002 42.1967 153.402 43.0433 152.609 43.71C151.822 44.37 150.859 44.7733 149.719 44.92C149.392 44.96 149.049 44.9833 148.689 44.99C148.329 44.9967 148.089 45 147.969 45H143.379ZM145.829 42.73H147.969C148.169 42.73 148.422 42.7233 148.729 42.71C149.042 42.6967 149.319 42.6667 149.559 42.62C150.239 42.4933 150.792 42.19 151.219 41.71C151.646 41.23 151.959 40.6467 152.159 39.96C152.366 39.2733 152.469 38.5533 152.469 37.8C152.469 37.02 152.366 36.2867 152.159 35.6C151.952 34.9133 151.632 34.3367 151.199 33.87C150.772 33.4033 150.226 33.1067 149.559 32.98C149.319 32.9267 149.042 32.8967 148.729 32.89C148.422 32.8767 148.169 32.87 147.969 32.87H145.829V42.73ZM162.293 45.3C161.2 45.3 160.24 45.0633 159.413 44.59C158.586 44.1167 157.94 43.46 157.473 42.62C157.013 41.78 156.783 40.8133 156.783 39.72C156.783 38.54 157.01 37.5167 157.463 36.65C157.916 35.7767 158.546 35.1 159.353 34.62C160.16 34.14 161.093 33.9 162.153 33.9C163.273 33.9 164.223 34.1633 165.003 34.69C165.79 35.21 166.373 35.9467 166.753 36.9C167.133 37.8533 167.276 38.9767 167.183 40.27H164.793V39.39C164.786 38.2167 164.58 37.36 164.173 36.82C163.766 36.28 163.126 36.01 162.253 36.01C161.266 36.01 160.533 36.3167 160.053 36.93C159.573 37.5367 159.333 38.4267 159.333 39.6C159.333 40.6933 159.573 41.54 160.053 42.14C160.533 42.74 161.233 43.04 162.153 43.04C162.746 43.04 163.256 42.91 163.683 42.65C164.116 42.3833 164.45 42 164.683 41.5L167.063 42.22C166.65 43.1933 166.01 43.95 165.143 44.49C164.283 45.03 163.333 45.3 162.293 45.3ZM158.573 40.27V38.45H166.003V40.27H158.573ZM182.091 45V38.44C182.091 37.7 181.908 37.1233 181.541 36.71C181.175 36.29 180.678 36.08 180.051 36.08C179.665 36.08 179.318 36.17 179.011 36.35C178.705 36.5233 178.461 36.7833 178.281 37.13C178.101 37.47 178.011 37.8767 178.011 38.35L176.941 37.72C176.935 36.9733 177.101 36.3167 177.441 35.75C177.788 35.1767 178.255 34.73 178.841 34.41C179.428 34.09 180.081 33.93 180.801 33.93C181.995 33.93 182.908 34.29 183.541 35.01C184.181 35.7233 184.501 36.6633 184.501 37.83V45H182.091ZM169.101 45V34.2H171.231V37.55H171.531V45H169.101ZM175.611 45V38.47C175.611 37.7167 175.428 37.13 175.061 36.71C174.695 36.29 174.195 36.08 173.561 36.08C172.948 36.08 172.455 36.29 172.081 36.71C171.715 37.13 171.531 37.6767 171.531 38.35L170.451 37.63C170.451 36.93 170.625 36.3 170.971 35.74C171.318 35.18 171.785 34.74 172.371 34.42C172.965 34.0933 173.628 33.93 174.361 33.93C175.168 33.93 175.841 34.1033 176.381 34.45C176.928 34.79 177.335 35.2567 177.601 35.85C177.875 36.4367 178.011 37.1 178.011 37.84V45H175.611ZM191.704 45.3C190.624 45.3 189.68 45.0567 188.874 44.57C188.067 44.0833 187.44 43.4133 186.994 42.56C186.554 41.7 186.334 40.7133 186.334 39.6C186.334 38.4667 186.56 37.4733 187.014 36.62C187.467 35.7667 188.097 35.1 188.904 34.62C189.71 34.14 190.644 33.9 191.704 33.9C192.79 33.9 193.737 34.1433 194.544 34.63C195.35 35.1167 195.977 35.79 196.424 36.65C196.87 37.5033 197.094 38.4867 197.094 39.6C197.094 40.72 196.867 41.71 196.414 42.57C195.967 43.4233 195.34 44.0933 194.534 44.58C193.727 45.06 192.784 45.3 191.704 45.3ZM191.704 43.04C192.664 43.04 193.377 42.72 193.844 42.08C194.31 41.44 194.544 40.6133 194.544 39.6C194.544 38.5533 194.307 37.72 193.834 37.1C193.36 36.4733 192.65 36.16 191.704 36.16C191.057 36.16 190.524 36.3067 190.104 36.6C189.69 36.8867 189.384 37.29 189.184 37.81C188.984 38.3233 188.884 38.92 188.884 39.6C188.884 40.6467 189.12 41.4833 189.594 42.11C190.074 42.73 190.777 43.04 191.704 43.04Z" fill="white"/>
<g clip-path="url(#clip0_1_112)">
<path d="M223.846 38L226.846 41L234.846 33" stroke="white" stroke-width="1.5" stroke-linecap="round" stroke-linejoin="round"/>
<path d="M234.846 39V45C234.846 45.5304 234.635 46.0391 234.26 46.4142C233.885 46.7893 233.377 47 232.846 47H220.846C220.316 47 219.807 46.7893 219.432 46.4142C219.057 46.0391 218.846 45.5304 218.846 45V33C218.846 32.4696 219.057 31.9609 219.432 31.5858C219.807 31.2107 220.316 31 220.846 31H229.846" stroke="white" stroke-width="1.5" stroke-linecap="round" stroke-linejoin="round"/>
</g>
<defs>
<clipPath id="clip0_1_112">
<rect width="24" height="24" fill="white" transform="translate(214.846 27)"/>
</clipPath>
</defs>
</svg>
