<?xml version="1.0" encoding="UTF-8"?>
<!-- Generator: Adobe Illustrator 25.2.1, SVG Export Plug-In . SVG Version: 6.00 Build 0)  -->
<svg xmlns="http://www.w3.org/2000/svg" xmlns:xlink="http://www.w3.org/1999/xlink" version="1.1" id="Layer_1" x="0px" y="0px" viewBox="0 0 1360 632" style="enable-background:new 0 0 1360 632;" xml:space="preserve">
<style type="text/css">
	.st0{display:none;fill:#FEFEFE;}
	.st1{fill:#18A068;}
	.st2{fill:#1BA975;}
	.st3{fill:#EDEDED;}
	.st4{fill:#004C23;}
	.st5{fill:#FEFEFE;}
	.st6{fill:#024251;}
</style>
<g>
	<path class="st0" d="M1359.9,288c0,30.3,0,60.6,0,91c-2.9,2.3-6.4,1.6-9.6,1.6c-72.3,0-144.6,0-216.9,0c-5.8,0-11.7,0.1-17.5,0   c-3.8-0.1-5.5,1.5-5.3,5.3c0.1,1.8,0,3.7,0,5.5c0,77,0,153.9,0,230.9c0,3.3,0.7,6.7-1.6,9.6c-6.7,0-13.3,0-20,0   c-2.3-2.9-1.6-6.4-1.6-9.6c0-72.1,0-144.3,0-216.4c0-6.7-0.1-13.3,0-20c0.1-3.9-1.6-5.5-5.4-5.2c-1.2,0.1-2.3,0-3.5,0   c-76.7,0-153.3,0-230,0c-8.8,0-8.9,0-8.9,8.7c0,77.6,0,155.3,0,232.9c0,3.3,0.7,6.7-1.6,9.6c-6.7,0-13.3,0-20,0   c-2.3-2.9-1.6-6.4-1.6-9.6c0-72.5,0-145,0-217.4c0-6.3-0.1-12.7,0-19c0.1-3.9-1.6-5.5-5.4-5.2c-1.2,0.1-2.3,0-3.5,0   c-77,0-154,0-231,0c-8.8,0-8.9,0-8.9,8.7c0,77.6,0,155.3,0,232.9c0,3.3,0.7,6.7-1.6,9.6c-6.7,0-13.3,0-20,0   c-2.3-2.9-1.6-6.4-1.6-9.6c0-72.5,0-145,0-217.4c0-6.3-0.1-12.7,0-19c0.1-3.9-1.6-5.5-5.4-5.2c-1.2,0.1-2.3,0-3.5,0   c-76.7,0-153.3,0-230,0c-8.8,0-8.9,0-8.9,8.7c0,77.6,0,155.3,0,232.9c0,3.3,0.7,6.7-1.6,9.6c-6.7,0-13.3,0-20,0   c-2.3-2.9-1.6-6.4-1.6-9.6c0-72.5,0-145,0-217.4c0-6.3-0.1-12.7,0-19c0.1-3.9-1.6-5.5-5.4-5.2c-1.2,0.1-2.3,0-3.5,0   c-76.7,0-153.3,0-230,0c-8.8,0-8.9,0-8.9,8.7c0,77.6,0,155.3,0,232.9c0,3.3,0.7,6.7-1.6,9.6c-7.2,0-14.3-0.1-21.5,0.1   c-2.2,0.1-2.9-0.4-2.5-2.6c0.1-0.6,0-1.3,0-2c0-169.4,0-338.9,0-508.3c2.3-0.9,3.7,0.8,5.3,1.9c30.5,22,60.9,44.3,91.4,66.3   c3.7,2.7,4.6,5.4,3.2,9.8c-10.7,31.9-20.7,64-31.4,95.9c-1.5,4.4-2.7,8.9-4.3,14.1c6.5-3.6,11.6-8,17-11.9   c25.6-18.7,51.3-37.1,76.8-55.8c4.9-3.6,5.4-3.6,10.5,0.1c30.4,21.9,60.6,44.1,91,66c0.7,0.5,1.2,1.1,2.5,1.2   c-0.3-2.5-1.1-4.8-1.9-7.1c-8.9-26.5-17.5-53.1-25.9-79.8c-0.4-1.3-0.8-2.5-1-3.9c-1-6.9-4-13.2-5.9-19.8c-0.6-2.2-1.8-4.3-0.4-6.6   c17.3-13.3,35.2-25.7,52.8-38.6c13-9.6,26.1-19,39.1-28.5c1-0.7,2.3-1.2,2.8-2.7c-1.8-0.8-3.6-0.4-5.4-0.4c-35.6,0-71.2,0-106.9,0   c-7.6,0-8.3-0.6-10.6-7.7c-11.1-34.9-22.6-69.6-33.8-104.5c-0.7-2.3-2.4-4.5-0.8-7.1c397.1,0,794.2,0,1191.3-0.1   c3.7,0,4.6,0.8,4.6,4.6c-0.1,53.5-0.1,107-0.1,160.5c-7.4,2.9-15,1.7-22.6,0.8c-2.8-0.3-2.8-3.4-2.9-5.7c-0.2-8,0-16-0.1-24   c-0.1-6-0.5-6.5-6.6-6.5c-4.8,0-9.7,0-14.5,0c-3.4,0-4.8,1.5-4.8,4.8c0,8.2,0.1,16.3,0,24.5c-0.1,6.5-1.1,7.5-7.6,7.6   c-0.3,0-0.7,0-1,0c-3.5,0.5-8.3-1.7-10.4,1.5c-2.4,3.7-0.9,8.7-0.8,13.2c0.1,2,1.4,2.9,3.3,3.1c2.3,0.2,4.7,0.1,7,0.1   c8.7,0.1,9.5,0.8,9.5,9.3c0,14.2,0,28.3,0,42.5c0,9.8-0.2,19.6,0.9,29.4c1.5,13.1,7.7,19.7,20.7,21.7c7.1,1.1,14.2,1.5,21.4,0.3   C1354.3,287.3,1357.1,286.8,1359.9,288z"></path>
	<path class="st1" d="M566,631.9c0-82.4,0-164.9-0.1-247.3c0-4.5,1.1-5.7,5.6-5.7c80.3,0.2,160.6,0.2,240.9,0c4.6,0,5.6,1.2,5.6,5.7   C818,467,818,549.5,818,631.9C734,631.9,650,631.9,566,631.9z"></path>
	<path class="st1" d="M1108.9,631.9c0-82.5,0-164.9-0.1-247.4c0-4.5,1.1-5.7,5.7-5.7c81.8,0.1,163.6,0.1,245.4,0.1   c0,83,0,166,0.1,248.9c0,3.4-0.7,4.1-4.1,4.1C1273.6,631.9,1191.3,631.9,1108.9,631.9z"></path>
	<path class="st1" d="M24.1,631.9c0-82.4,0-164.9-0.1-247.3c0-4.5,1.1-5.7,5.6-5.7c80,0.2,159.9,0.2,239.9,0c4.6,0,5.6,1.2,5.6,5.7   c-0.1,82.4-0.1,164.9-0.1,247.3C191.4,631.9,107.8,631.9,24.1,631.9z"></path>
	<path class="st1" d="M295.1,631.9c0-82.4,0-164.9-0.1-247.3c0-4.5,1.1-5.7,5.6-5.7c80,0.2,159.9,0.2,239.9,0c4.6,0,5.6,1.2,5.6,5.7   C546,467,546,549.5,546,631.9C462.4,631.9,378.7,631.9,295.1,631.9z"></path>
	<path class="st1" d="M838,631.9c0-82.4,0-164.9-0.1-247.3c0-4.5,1.1-5.7,5.6-5.7c80,0.2,159.9,0.2,239.9,0c4.6,0,5.6,1.2,5.6,5.7   c-0.1,82.4-0.1,164.9-0.1,247.3C1005.3,631.9,921.6,631.9,838,631.9z"></path>
	<path class="st2" d="M164.1,0.1c7,21.7,14,43.5,21.1,65.2c5.3,16.2,10.7,32.3,15.7,48.6c1.1,3.5,2.5,4.2,5.8,4.2   c38-0.1,75.9-0.1,113.9-0.1c1.6,0,3.2,0,6.4,0c-6.9,5.2-12.6,9.6-18.5,13.9c-25.4,18.5-50.8,37-76.3,55.4c-1.5,1.1-2.9,2.8-5,2.8   c-2.6,0.1-4.7,1-6.8,2.5c-17.9,12.9-35.7,26-54.1,39.3c20.8-5.4,40.9-10.8,61.1-15.7c2.2-0.5,4.4-1.9,6.7-0.2   c5.4,16.1,10.8,32.3,16.1,48.4c3.9,11.9,7.7,23.8,11.6,35.6c1,3.1,1.8,6.2,3,10.6c-7.1-5.1-13.1-9.4-19.1-13.8   c-21.1-15.4-42.1-30.8-63.2-46.2c-5.8-4.2-11.7-8.2-17.4-12.6c-1.8-1.3-2.8-0.3-3.8,0.4c-26.2,19.1-52.4,38.3-78.6,57.4   c-6.5,4.8-13.2,9.4-20.9,14.9c4.2-13.1,8.1-24.9,11.9-36.7c8.6-26.5,17.1-53.1,25.9-79.6c0.9-2.8,0.1-4.1-1.7-5.4   c-29.5-21.2-59-42.4-88.5-63.7c-3-2.2-5.7-4.9-9.1-6.5c0-0.3,0-0.7,0-1c2.4-2,5.4-1.4,8.2-1.4c35.7,0,71.3,0,107,0   c8,0,8.1,0,10.5-7.6c10.8-34.1,22.2-68.1,33.1-102.2c0.8-2.4,1.3-4.8,3.2-6.7C162.8,0.1,163.4,0.1,164.1,0.1z"></path>
	<path class="st0" d="M142.6-169c-3.7,11.7-7.2,23.5-11,35.2c-8.3,25.9-16.8,51.8-25,77.7c-1.2,4-3.1,5.2-7.3,5.2   C59.8-51.1,20.2-51-19.4-51c0-38.1,0-76.2-0.1-114.3c0-3.2,0.8-3.8,3.9-3.8C37.1-168.9,89.8-169,142.6-169z"></path>
	<path class="st3" d="M1359.9,288c-12.5,2.7-25,3.2-37.2-0.8c-9.1-3-13.8-10.1-14.7-19.4c-0.6-6.8-1.3-13.5-1.2-20.3   c0.2-18.8,0-37.6,0.2-56.4c0-3.9-0.9-5.5-5-5.1c-3.8,0.3-7.7,0-11.5,0.1c-2.5,0.1-3.7-0.7-3.6-3.4c0.1-4.8,0.1-9.7,0-14.5   c0-2.4,1.1-3.2,3.3-3.2c4.2,0.1,8.3-0.2,12.5,0.1c3.3,0.2,4.3-1.1,4.3-4.3c-0.2-9.5,0-19-0.1-28.5c-0.1-3.2,0.9-4.4,4.2-4.3   c6.8,0.2,13.7,0.2,20.5,0c3.7-0.1,4.5,1.4,4.4,4.7c-0.2,9.3,0.1,18.6-0.1,28c-0.1,3.6,1.2,4.6,4.6,4.5c6.5-0.2,13-0.1,19.5-0.1   c0,7,0,14,0,21c-4.3,2.8-9.1,1.4-13.6,1.5c-8.8,0.2-8.8,0.1-8.8,8.8c0,19.2,0,38.3,0,57.5c0,9.1,2.5,11.5,11.5,11.7   c3.6,0.1,7.3-0.8,10.9,0.5C1359.9,273.3,1359.9,280.7,1359.9,288z"></path>
	<path class="st0" d="M1359.9,266c-5.7,1.9-11.6,1.4-17.2,0.6c-4.2-0.6-6.8-4.1-6.8-8.7c0-22.6,0-45.3-0.1-67.9c0-3.1,1.1-4,4.1-4   c6.7,0.2,13.3,0,20,0C1359.9,212.7,1359.9,239.4,1359.9,266z"></path>
	<path class="st3" d="M941,275.9c0,14.1,0.1,28.2-0.1,42.3c-0.1,5.1,2.3,11.6-1.1,14.9c-3.1,3-9.5,0.8-14.5,0.9   c-12.3,0.1-12.3,0-12.3-12.1c0-50.3,0.1-100.6-0.1-150.9c0-4.8,1.3-6.4,6.1-6.1c5.5,0.4,11,0.2,16.5,0.1c2.5-0.1,3.6,0.8,3.5,3.5   c-0.1,3.5,0,7,0,10.8c2.6-1.3,3.2-3.9,4.9-5.7c10.7-11,24.3-13.1,38.6-12.4c13.8,0.7,26.2,5.7,36,15.8c8.5,8.8,13.3,19.6,15.3,31.3   c2.7,16.4,2.4,32.8-3.3,48.9c-8.8,24.9-31.5,38.2-57.7,34C960.7,289.3,950.1,285.2,941,275.9z"></path>
	<path class="st3" d="M1155,226.6c-0.6-15.6,3.2-29.4,11.8-41.9c9-13,22.1-19.8,37.3-22.7c12.1-2.3,24.2-1.5,35.8,2.5   c22.9,7.8,35.3,24.4,39,47.8c2.6,16.6,1.3,32.8-6.2,48.1c-8.5,17.3-22.9,26.9-41.3,30.4c-15.9,3-31.5,1.5-46-6.2   c-17.1-9-25.9-24.1-29.5-42.7C1154.9,236.7,1154.9,231.5,1155,226.6z"></path>
	<path class="st3" d="M796.1,200c-1.3,0-2.7,0-4,0c-5.5,0-11.1,1.3-12.8-6.8c-0.8-3.8-5-5.9-8.9-7.2c-9.1-3-18.3-3-27.3,0.2   c-4.2,1.5-7.2,4.4-7.5,9c-0.3,4.1,1.7,7.4,5.1,9.6c6.4,4.2,13.7,5.6,21,7.2c10.3,2.3,20.8,4,30.8,7.9c9.7,3.8,17.9,9.5,20.9,19.9   c5.6,19.3-0.7,34.1-17.4,43.6c-14.7,8.3-30.7,9.7-47.2,7.8c-12.7-1.5-24.4-5-33.4-14.6c-6.6-7-10.4-15.3-10.3-25.1   c0-2.5,0.9-3.6,3.5-3.5c7,0.1,14,0.1,21,0c2.6-0.1,3.4,1,3.8,3.4c1.8,11,9.8,16.4,22.7,17.7c6.5,0.6,12.8,0.1,19-1.6   c8-2.3,11.9-6.6,12-12.8c0.1-5.8-4.3-11-11.3-13.7c-10.6-4-21.9-5.3-32.8-8.1c-8-2.1-15.7-4.8-22.9-9.2c-14.8-9-17-36-5-47.4   c9.3-8.9,20.1-12.8,32.5-14.4c11.2-1.4,22.1-0.9,33,2c16.4,4.5,26.5,15,30.3,31.6c0.7,3.2-0.1,4.7-3.6,4.5   C803.4,199.9,799.8,200,796.1,200z"></path>
	<path class="st3" d="M659,273c-10.9,14.4-24.5,20.2-41.1,18.9c-23.8-1.8-38-13.1-40-40.6c-1.9-26.9-0.3-53.9-1-80.8   c-0.1-4.3,1-5.9,5.5-5.6c5.8,0.4,11.7,0.4,17.5,0c4.7-0.3,6.2,1,6.2,6c-0.3,24.8-0.3,49.6,0,74.4c0.2,14.8,6.5,23.6,21.8,24.2   c15.6,0.6,29.6-7.8,30-27.3c0.5-24,0.2-48,0-71.9c0-4.1,1.1-5.6,5.3-5.3c6,0.3,12,0.4,18,0c4.5-0.3,6,1,5.9,5.7   c-0.2,31-0.1,62-0.1,92.9c0,7-0.1,14,0.1,21c0.1,3.1-0.7,4.6-4.1,4.4c-6.7-0.2-13.3-0.2-20,0c-3.1,0.1-4.1-1.1-4-4.1   C659.2,281.4,659,277.7,659,273z"></path>
	<path class="st3" d="M411.1,216c0-22.3-0.1-44.6,0.1-67c0-3.9-1-5.2-5-5.1c-14.8,0.2-29.7,0-44.5,0.2c-3.4,0-4.8-0.8-4.6-4.5   c0.3-5.8,0.2-11.7,0-17.5c-0.1-2.9,0.7-4.2,3.9-4.2c43.8,0.1,87.6,0.1,131.4,0c2.8,0,3.8,1,3.7,3.8c-0.1,5.8-0.2,11.7,0,17.5   c0.2,3.7-1,4.9-4.8,4.8c-14.5-0.2-29,0.1-43.5-0.2c-4.5-0.1-5.9,1-5.9,5.8c0.2,44.3,0.1,88.6,0.1,132.9c0,6.4,0,6.4-6.6,6.4   c-6.5,0-13-0.2-19.5,0.1c-4.1,0.2-5-1.2-5-5.1C411.1,261.3,411.1,238.7,411.1,216z"></path>
	<path class="st3" d="M842,226.7c0-12.2-0.1-24.3,0.1-36.5c0-3.3-1-4.4-4.3-4.3c-4.3,0.2-8.7-0.1-13,0.1c-2.8,0.1-3.9-0.9-3.8-3.7   c0.2-4.5,0.2-9,0-13.5c-0.2-3.2,1.3-4,4.2-3.9c4,0.2,8-0.2,12,0.1c4.2,0.4,5-1.4,5-5.2c-0.2-9.2,0.1-18.3-0.1-27.5   c-0.1-3.6,1.2-4.6,4.6-4.5c6.5,0.2,13,0.2,19.5,0c3-0.1,4.1,1,4,4c-0.1,9.5,0.1,19-0.1,28.5c-0.1,3.4,0.9,4.8,4.5,4.6   c5.5-0.3,11,0,16.5-0.1c2.9-0.1,4.3,0.7,4.2,3.9c-0.2,4.5-0.2,9,0,13.5c0.1,2.9-1.1,3.8-3.8,3.7c-5.8-0.1-11.7,0.1-17.5-0.1   c-2.8-0.1-3.8,1-3.8,3.8c0.1,22,0,44,0.1,65.9c0.1,8.2,3.6,11.3,11.8,11.3c3.5,0,7,0.1,10.5-0.3c2.1-0.3,2.7,0.2,2.7,2.1   c0,5.7,0,11.3,0,17c0,1.7-0.8,3-2.6,3.1c-11.4,1-22.8,2.4-34-1.2c-12.7-4.1-15.5-11.8-16.2-25C841.5,250.7,842,238.7,842,226.7z"></path>
	<path class="st3" d="M1134.9,203.5c0,26.5-0.2,52.9,0.1,79.4c0.1,5.3-1.6,6.6-6.5,6.2c-5.6-0.4-11.3-0.3-17,0   c-3.8,0.2-4.8-1.2-4.8-4.8c0.1-23.6,0.1-47.3,0.1-70.9c0-29.6,0-59.3,0-88.9c0-6.4,0-6.4,6.6-6.4c5.5,0,11,0.3,16.5-0.1   c4.1-0.2,5,1.2,5,5.1C1134.9,149.9,1134.9,176.7,1134.9,203.5z"></path>
	<path class="st3" d="M515,184.9c4.4-8,10.5-13.8,18-18.5c7.5-4.6,15.7-6,24.4-5.3c3.2,0.3,4.9,1.7,4.7,5.5   c-0.3,6.3-0.2,12.7-0.1,19c0.1,3.1-1.4,3.8-4,3.3c-21.8-4.9-37.6,10.6-40,30.5c-2.4,20.4-0.5,40.9-1,61.3c-0.2,9.6,1.3,8.2-8.6,8.3   c-5,0.1-10-0.2-15,0.1c-4.2,0.3-4.5-1.8-4.5-5.1c0.1-23.6,0.1-47.3,0.1-70.9c0-14.5,0.1-29-0.1-43.5c0-3.4,1-4.7,4.5-4.6   c5.7,0.3,11.3,0.2,17,0c3.4-0.1,4.8,0.8,4.6,4.5C514.8,174.6,515,179.8,515,184.9z"></path>
	<path class="st3" d="M1082.9,227.3c0,19-0.1,37.9,0.1,56.9c0,3.6-0.9,5.1-4.7,4.9c-6.3-0.3-12.6-0.2-19,0c-3.1,0.1-4.4-0.7-4.4-4.1   c0.1-38.6,0.1-77.2,0-115.8c0-3.5,1.4-4.2,4.5-4.1c6.3,0.2,12.7,0.3,19,0c3.9-0.2,4.7,1.3,4.7,4.9   C1082.9,189,1082.9,208.2,1082.9,227.3z"></path>
	<path class="st4" d="M233.9,216c-20.2,5.1-40.4,10.3-60.6,15.4c-3.1,0.8-6.3,1.6-10.3,2.6c1.8-2.8,3.9-4,5.9-5.5   c17.7-12.9,35.3-25.8,53-38.8c1.9-1.4,3.6-2.1,5.2,0.3c1.3,7.3,4.5,14,6.5,21C234.1,212.7,235.4,214.3,233.9,216z"></path>
	<path class="st3" d="M1068.3,144c-3.7-0.3-9.3,1.9-12.2-0.8c-3.2-3-1-8.8-1.1-13.4c-0.2-11.8-0.1-11.8,11.5-11.8   c4.3,0,8.6,0.1,13,0c2.6-0.1,3.5,1,3.5,3.5c-0.1,6.3-0.1,12.6,0,18.9c0.1,3-1.3,3.7-3.9,3.6C1075.8,143.9,1072.4,144,1068.3,144z"></path>
	<path class="st5" d="M603.8,484.9c21.1,0,41.2-0.3,61.3,0.2c5.2,0.1,6.6-2.1,8-6.2c6-19,12.2-37.9,18.4-57.2   c2.2,1.1,2.1,3.1,2.6,4.7c6.1,18.1,12.2,36.3,17.9,54.5c1.1,3.5,2.6,4.1,5.8,4.1c19-0.1,38-0.1,57-0.1c1.6,0,3.2,0,4.8,0   c0.1,0.3,0.3,0.7,0.4,1c-27.5,19.8-54.9,39.7-82.4,59.5c0.1,0.2,0.2,0.5,0.2,0.7c7.7-1.8,15.3-3.6,23-5.5c10.1-2.6,10.2-2.7,13.3,7   c4.3,13.2,8.4,26.5,12.7,40.2c-4.1-0.1-6.5-3.4-9.3-5.4c-14.4-10.2-28.4-20.7-42.5-31.3c-2.1-1.6-3.6-1.5-5.7,0.1   c-16.1,11.9-32.3,23.7-48.5,35.5c-0.8,0.6-1.7,0.8-3.5,1.6c3.2-10.2,6.3-19.7,9.4-29.3c3.2-9.9,6.3-19.8,9.8-29.5   c1.2-3.5,0.7-5.5-2.6-7.7c-16.1-11.3-32-23-48-34.6C605.2,486.8,604.9,486.2,603.8,484.9z"></path>
	<path class="st5" d="M1145.1,484.9c21.4,0,41.3-0.2,61.3,0.1c5,0.1,7.2-0.9,8.9-6.3c5.4-18,11.7-35.7,17.6-53.5   c0.4-1.1,0.2-2.8,1.5-2.8c1.6-0.1,1.4,1.7,1.8,2.9c6,18.8,12.2,37.6,18.2,56.4c0.8,2.7,2.2,3.3,4.8,3.3c19.5-0.1,39-0.1,58.5-0.1   c1.6,0,3.2,0,6,0c-28.5,20.6-55.9,40.4-83.4,60.2c0.1,0.3,0.3,0.7,0.4,1c6.5-1.6,13-3,19.4-4.9c12.8-3.8,12.8-4,16.8,8.3   c4.1,12.6,8,25.2,12.4,38.8c-6.6-3.3-11.2-7.5-16.3-11.1c-12.6-9-25-18.2-37.4-27.5c-2.1-1.6-2.7,0.5-3.5,1.1   c-14.1,10-28,20.1-41.9,30.3c-3.1,2.3-6.6,4-9.2,7c-0.4-0.3-0.7-0.5-1.1-0.8c1.8-5.8,3.7-11.5,5.5-17.3c4.7-14.3,9.3-28.7,14.1-43   c0.7-1.9,0.6-2.5-1.2-3.8c-13.1-9.4-26.1-19-39.1-28.5C1154.8,491.9,1150.6,488.9,1145.1,484.9z"></path>
	<path class="st5" d="M150,421.3c3.9,11.6,7.5,22.3,11,33.1c3.1,9.4,6.1,18.8,9,28.2c0.9,3.1,3.3,2.3,5.3,2.3c19.2,0,38.3,0,57.5,0   c1.6,0,3.2,0,6.1,0c-28.6,20.7-56.1,40.5-83.6,60.3c0.1,0.3,0.2,0.6,0.4,0.9c6.4-1.5,12.8-3.1,19.2-4.6c4.4-1,9.5-3.9,12.9-2.6   c3.3,1.3,3.3,7.6,4.7,11.7c3.9,11.5,7.6,23.1,11.4,34.6c0.2,0.7,0.1,1.6,0.3,3.5c-8.5-6.1-16.2-11.7-23.9-17.3   c-9.3-6.8-18.6-13.7-28-20.5c-1.4-1-2.4-2-4.7-0.2c-16.6,12.4-33.4,24.3-50.2,36.4c-0.5,0.3-1.1,0.5-2.6,1.2   c2-6.5,3.6-12.2,5.6-17.8c5-14.2,9.7-28.5,14.1-43c0.7-2.3,0.9-3.3-1.3-4.8c-17.2-12.3-34.3-24.7-51.5-37.2c1-1.4,2.4-0.7,3.6-0.7   c20-0.1,40-0.1,60,0c2.3,0,3.7-0.2,4.5-2.9c5.4-17.3,11.1-34.5,16.8-51.8C147.4,427.6,147.3,424.5,150,421.3z"></path>
	<path class="st5" d="M333.8,484.9c20.3,0,40.6-0.1,61,0.1c3.7,0,5.2-0.9,6.4-4.6c5.7-18.2,11.9-36.3,17.8-54.5   c0.5-1.4,0.9-2.7,2.1-4.3c3.7,7.7,5.1,15.8,7.9,23.4c4.2,11.9,8.2,23.9,11.9,36c1,3.2,2.4,4,5.4,4c20.7-0.1,41.3-0.1,63.7-0.1   c-28.6,20.7-56,40.5-83.4,60.3c0.1,0.3,0.1,0.6,0.2,0.8c5-1.2,10-2.3,15-3.5c5.2-1.2,10.5-2.3,15.6-3.9c1.8-0.6,2.2-0.8,2.9,1.3   c4.8,15.3,9.8,30.5,14.8,45.8c0.2,0.6-0.1,1.3-0.2,2.6c-7-5-13.6-9.7-20.1-14.4c-10.3-7.5-20.4-15.1-30.7-22.6   c-1.8-1.3-3.6-1.9-6.1,0c-15.3,11.4-30.8,22.4-46.3,33.5c-1.6,1.1-3.2,2.1-5.8,3.8c3-9.3,5.7-17.5,8.4-25.8   c3.7-11.4,7.2-22.9,11.1-34.2c1-3,0.8-4.3-2-6.3c-15.5-11.4-31-22.7-46.8-33.7c-1.2-0.8-2.3-1.7-3.5-2.6   C333.3,485.7,333.6,485.3,333.8,484.9z"></path>
	<path class="st5" d="M969.1,545.1c6.7,0.5,12.4-2.5,18.5-3.5c3.8-0.6,7.7-1.4,11.3-2.8c2.5-1,3.3-0.1,3.8,1.7   c5,15.7,10,31.3,15.1,47.4c-3.4-0.6-5.5-2.6-7.8-4.3c-15-10.9-30-21.9-45-32.9c-2.4-1.8-4.1,0.2-5.6,1.3   c-13.4,9.6-26.6,19.3-40,28.9c-3.3,2.4-6.2,5.3-10.6,6.9c0.6-6.4,3.4-12,5.2-17.7c4.4-14.1,9-28.1,14-42c1.1-3.2-0.3-4.3-2.2-5.6   c-16.4-11.8-32.8-23.5-49.2-35.3c-0.5-0.4-0.8-0.9-1.9-2.1c6.2,0,11.6,0,17,0c15.3,0,30.7-0.1,46,0.1c3.1,0,4.4-0.8,5.5-4   c6.3-19.7,13-39.3,19.8-59.9c3.4,6.6,4.8,13,6.9,19.1c4.6,13.5,8.9,27.1,13.1,40.7c1,3.2,2.4,4.1,5.8,4.1c20.5-0.2,41-0.1,62.2,0.9   C1023.7,505.7,996.4,525.4,969.1,545.1z"></path>
	<path class="st6" d="M939.9,225.7c0.1-12,2.4-23.3,10.6-32.7c11.2-12.9,38.6-13.3,48.9,5.5c10.8,19.6,11.5,39.5-1.1,58.8   c-9.3,14.3-32.6,16.5-45.1,4.6C943.6,252.6,940,242.6,939.9,225.7z"></path>
	<path class="st6" d="M1182.8,225.7c0.2-10.6,2.8-21,9.9-30.4c9.7-12.9,31.9-15.6,44.1-4.9c13.2,11.6,16.3,26.6,14.4,43.3   c-1.1,9.3-3.9,17.7-10,25c-12.6,15.1-36.8,14-48.2-0.6C1185.6,248.8,1182.9,238.1,1182.8,225.7z"></path>
</g>
</svg>
