<?xml version="1.0" encoding="UTF-8"?>
<!-- Generator: Adobe Illustrator 25.2.1, SVG Export Plug-In . SVG Version: 6.00 Build 0)  -->
<svg xmlns="http://www.w3.org/2000/svg" xmlns:xlink="http://www.w3.org/1999/xlink" version="1.1" id="Layer_1" x="0px" y="0px" viewBox="0 0 79 10.7" style="enable-background:new 0 0 79 10.7;" xml:space="preserve">
<style type="text/css">
	.st0{clip-path:url(#SVGID_2_);fill:#FFFFFF;}
	.st1{clip-path:url(#SVGID_4_);fill:#FFFFFF;}
	.st2{clip-path:url(#SVGID_6_);fill:#FFFFFF;}
	.st3{clip-path:url(#SVGID_8_);fill:#FFFFFF;}
	.st4{clip-path:url(#SVGID_10_);fill:#FFFFFF;}
	.st5{clip-path:url(#SVGID_12_);fill:#FFFFFF;}
	.st6{clip-path:url(#SVGID_14_);fill:#FFFFFF;}
	.st7{clip-path:url(#SVGID_16_);fill:#FFFFFF;}
	.st8{clip-path:url(#SVGID_18_);fill:#3CE6D9;}
</style>
<g>
	<g>
		<defs>
			<rect id="SVGID_1_" y="0" width="79" height="10.7"></rect>
		</defs>
		<clipPath id="SVGID_2_">
			<use xlink:href="#SVGID_1_" style="overflow:visible;"></use>
		</clipPath>
		<path class="st0" d="M68,5.3c0-0.7,0.1-1.4,0.3-2c0.4-1.2,1.2-2,2.3-2.6c0.6-0.3,1.2-0.5,1.8-0.6C73,0,73.5,0,73.9,0    c0.8,0,1.5,0.2,2.2,0.5c1.4,0.7,2.3,1.8,2.7,3.3C79,4.4,79,4.9,79,5.4s-0.1,1-0.2,1.6c-0.2,0.8-0.7,1.5-1.3,2.1    c-0.6,0.6-1.3,1-2,1.2c-0.4,0.1-0.9,0.2-1.3,0.3c-0.3,0-0.6,0-0.9,0c-1.1,0-2.1-0.3-3-0.9c-0.7-0.4-1.3-1-1.7-1.7S68,6.6,68,5.8    c0-0.1,0-0.1,0-0.2C68,5.5,68,5.4,68,5.3 M73.5,8.4c0.1,0,0.2,0,0.3,0c0.1,0,0.2,0,0.2,0c0.8-0.1,1.4-0.5,1.9-1.2    c0.4-0.5,0.5-1.2,0.5-1.8c0-0.4,0-0.8-0.2-1.2c-0.2-0.6-0.5-1.1-1-1.4c-0.7-0.5-1.5-0.7-2.3-0.5c-1,0.2-1.7,0.8-2.1,1.7    c-0.2,0.5-0.3,1-0.3,1.5c0,0.3,0.1,0.7,0.2,1c0.2,0.6,0.5,1.1,1,1.4C72.3,8.3,72.8,8.4,73.5,8.4"></path>
	</g>
	<g>
		<defs>
			<rect id="SVGID_3_" y="0" width="79" height="10.7"></rect>
		</defs>
		<clipPath id="SVGID_4_">
			<use xlink:href="#SVGID_3_" style="overflow:visible;"></use>
		</clipPath>
		<path class="st1" d="M37.4,0.3h2.4c0,0,0,0,0,0.1c0,0,0,0,0,0.1c0,2.1,0,4.2,0,6.3c0,0.6-0.1,1.1-0.3,1.7    c-0.4,0.8-0.9,1.4-1.7,1.8c-0.5,0.3-1,0.4-1.6,0.5c-0.8,0.1-1.5,0-2.3-0.2c-0.7-0.2-1.3-0.6-1.8-1.2c-0.4-0.5-0.7-1.1-0.8-1.7    c-0.1-0.3-0.1-0.6-0.1-0.9c0-2.1,0-4.1,0-6.2V0.3h2.4v0.1c0,2,0,4,0,6c0,0.4,0.1,0.8,0.3,1.1c0.3,0.5,0.7,0.8,1.2,0.9    c0.4,0.1,0.7,0.1,1,0c0.6-0.2,1-0.6,1.1-1.1c0.1-0.3,0.1-0.6,0.1-0.8c0-2,0-4,0-6L37.4,0.3L37.4,0.3z"></path>
	</g>
	<g>
		<defs>
			<rect id="SVGID_5_" y="0" width="79" height="10.7"></rect>
		</defs>
		<clipPath id="SVGID_6_">
			<use xlink:href="#SVGID_5_" style="overflow:visible;"></use>
		</clipPath>
		<path class="st2" d="M14.6,0.3H17c1.4,3.4,2.8,6.7,4.2,10.1h-0.1c-0.8,0-1.7,0-2.5,0c-0.1,0-0.1,0-0.1-0.1    c-0.2-0.6-0.5-1.2-0.7-1.7c0,0,0-0.1-0.1-0.1h-0.1c-1.2,0-2.5,0-3.7,0c-0.1,0-0.1,0-0.1,0.1c-0.2,0.6-0.4,1.2-0.7,1.8    c0,0.1,0,0.1-0.1,0.1c-0.8,0-1.6,0-2.5,0h-0.1l0,0l0,0c0,0,0,0,0-0.1C11.8,7,13.2,3.6,14.6,0.3 M17,6.4c0-0.1-1.2-3.4-1.3-3.5    c-0.4,1.2-0.9,2.3-1.3,3.5H17z"></path>
	</g>
	<g>
		<defs>
			<rect id="SVGID_7_" y="0" width="79" height="10.7"></rect>
		</defs>
		<clipPath id="SVGID_8_">
			<use xlink:href="#SVGID_7_" style="overflow:visible;"></use>
		</clipPath>
		<path class="st3" d="M66.6,9c-0.1,0.1-0.3,0.3-0.4,0.4c-0.7,0.6-1.5,1-2.4,1.2c-0.4,0.1-0.9,0.1-1.3,0.1c-0.7,0-1.3-0.1-1.9-0.4    c-1-0.4-1.8-1-2.4-1.9c-0.4-0.7-0.7-1.4-0.8-2.1c-0.1-0.4-0.1-0.7-0.1-1.1c0-0.9,0.2-1.8,0.7-2.6c0.6-1,1.3-1.6,2.3-2.1    c0.5-0.2,1-0.4,1.5-0.4c0.5-0.1,1-0.1,1.5,0c0.7,0.1,1.5,0.3,2.1,0.6c0.4,0.2,0.8,0.5,1.1,0.8l0,0c0,0.1-1.6,1.6-1.7,1.7l0,0    c-0.3-0.4-0.6-0.6-1.1-0.7c-0.9-0.3-1.7-0.2-2.5,0.3c-0.6,0.2-1,0.7-1.2,1.4c-0.2,0.5-0.2,1-0.2,1.5c0,0.4,0.1,0.8,0.3,1.2    c0.4,0.8,1.1,1.3,2,1.5c0.5,0.1,1,0.1,1.4-0.1c0.5-0.2,0.9-0.4,1.2-0.8l0,0l0,0C64.9,7.4,66.1,8.6,66.6,9"></path>
	</g>
	<g>
		<defs>
			<rect id="SVGID_9_" y="0" width="79" height="10.7"></rect>
		</defs>
		<clipPath id="SVGID_10_">
			<use xlink:href="#SVGID_9_" style="overflow:visible;"></use>
		</clipPath>
		<path class="st4" d="M50,2.4h-2.8c0,0.2,0,0.4,0,0.6c0,0.2,0,0.4,0,0.6v0.6v0.6v0.6V6v0.6v0.6v0.6v0.6V9v0.6c0,0.2,0,0.4,0,0.6    c-0.1,0-2.3,0-2.4,0c0,0,0,0,0-0.1V10c0-2.6,0-5.2,0-7.7V2.2c-0.3,0-0.6,0-1,0c-0.3,0-0.6,0-0.9,0H42c0-0.1,0-1.9,0-2.1h8    C50,0.4,50,2.2,50,2.4"></path>
	</g>
	<g>
		<defs>
			<rect id="SVGID_11_" y="0" width="79" height="10.7"></rect>
		</defs>
		<clipPath id="SVGID_12_">
			<use xlink:href="#SVGID_11_" style="overflow:visible;"></use>
		</clipPath>
		<path class="st5" d="M29.4,8.3v2.1l0,0l0,0h-0.1c-2.1,0-4.2,0-6.2,0l0,0V0.3h2.4c0,0,0,0,0,0.1v0.1c0,2.6,0,5.1,0,7.7v0.1h0.1    c0.5,0,1.1,0,1.6,0c0.7,0,1.4,0,2,0C29.3,8.3,29.3,8.3,29.4,8.3"></path>
	</g>
	<g>
		<defs>
			<rect id="SVGID_13_" y="0" width="79" height="10.7"></rect>
		</defs>
		<clipPath id="SVGID_14_">
			<use xlink:href="#SVGID_13_" style="overflow:visible;"></use>
		</clipPath>
		<path class="st6" d="M54.5,10.4c-0.1,0-2.3,0-2.4,0V0.3h2.4C54.6,0.4,54.6,10.3,54.5,10.4"></path>
	</g>
	<g>
		<defs>
			<rect id="SVGID_15_" y="0" width="79" height="10.7"></rect>
		</defs>
		<clipPath id="SVGID_16_">
			<use xlink:href="#SVGID_15_" style="overflow:visible;"></use>
		</clipPath>
		<path class="st7" d="M0,0.3h2.7c0.1,0.2,0.1,0.3,0.2,0.5c0.7,1.6,1.3,3.2,2,4.8c0,0.1,0,0.1,0,0.2c-0.4,1-0.9,2-1.3,3v0.1l0,0l0,0    C2.4,6,1.2,3.2,0,0.3L0,0.3"></path>
	</g>
	<g>
		<defs>
			<rect id="SVGID_17_" y="0" width="79" height="10.7"></rect>
		</defs>
		<clipPath id="SVGID_18_">
			<use xlink:href="#SVGID_17_" style="overflow:visible;"></use>
		</clipPath>
		<polygon class="st8" points="6.9,10.4 4.2,10.4 8.5,0.3 11.1,0.3   "></polygon>
	</g>
</g>
</svg>
